# xmcd CD database file
#
# Track frame offsets:
#	150
#	22150
#	40377
#	64480
#	85420
#	105755
#	131062
#	155747
#	177182
#	195160
#	214737
#
# Disc length: 3006 seconds
#
# Revision: 0
# Processed by: cddbd v1.5.1PL0 Copyright (c) Steve Scherf et al.
# Submitted via: CDex 1.50beta10
#
DISCID=970bbc0b
DTITLE=Satoh Masami - Remembrance of Tune1
DYEAR=2004
DGENRE=Instrumental
TTITLE0=緑の丘
TTITLE1=想いでのボヘミアングラス
TTITLE2=マドレ
TTITLE3=Fair Wind
TTITLE4=野草
TTITLE5=小麦畑
TTITLE6=Carioca For Two
TTITLE7=緑の樹海
TTITLE8=スペインの子守歌
TTITLE9=Chuba 雨
TTITLE10=カディスの夕暮れ
EXTD=YEAR: 2004
EXTT0=
EXTT1=
EXTT2=
EXTT3=
EXTT4=
EXTT5=
EXTT6=
EXTT7=
EXTT8=
EXTT9=
EXTT10=
PLAYORDER=
